<svg xmlns="http://www.w3.org/2000/svg" width="169.21" height="188.419" viewBox="0 0 169.21 188.419">
  <g id="Group_4723" data-name="Group 4723" transform="translate(-469.684 -161.383)">
    <g id="Group_4714" data-name="Group 4714" transform="translate(469.684 215.069)">
      <path id="Path_4716" data-name="Path 4716" d="M552.974,227.859A31.579,31.579,0,0,1,589.9,247.2" transform="translate(-424.926 -180.052)" fill="none" stroke="#7cc042" stroke-linecap="round" stroke-linejoin="round" stroke-width="3.435"/>
      <path id="Path_4717" data-name="Path 4717" d="M527.219,240.624a31.587,31.587,0,0,1-36.928-19.342" transform="translate(-458.61 -183.106)" fill="none" stroke="#7cc042" stroke-linecap="round" stroke-linejoin="round" stroke-width="3.435"/>
      <ellipse id="Ellipse_1119" data-name="Ellipse 1119" cx="4.234" cy="6.03" rx="4.234" ry="6.03" transform="translate(160.742 64.768)" fill="#7cc042"/>
      <ellipse id="Ellipse_1120" data-name="Ellipse 1120" cx="4.234" cy="6.03" rx="4.234" ry="6.03" transform="translate(25.694 29.874) rotate(-13.164)" fill="#7cc042"/>
      <rect id="Rectangle_2389" data-name="Rectangle 2389" width="41.093" height="30.023" rx="3.24" transform="translate(0 12.38) rotate(-17.534)" fill="#fff"/>
      <path id="Path_4718" data-name="Path 4718" d="M471.574,208.905l21.565,9.377,12.712-20.525Z" transform="translate(-468.668 -195.748)" fill="#c8cfd3" stroke="#c8cfd3" stroke-linecap="round" stroke-linejoin="round" stroke-width="2.046"/>
    </g>
    <path id="Path_4719" data-name="Path 4719" d="M539.51,293.457a3.6,3.6,0,0,1-3.6,3.6h0a3.6,3.6,0,0,1-3.6-3.6V262.871a3.6,3.6,0,0,1,3.6-3.6h0a3.6,3.6,0,0,1,3.6,3.6Z" transform="translate(33.653 52.376)" fill="#7cc042"/>
    <path id="Path_4720" data-name="Path 4720" d="M559.953,293.457a3.6,3.6,0,0,1-3.6,3.6h0a3.6,3.6,0,0,1-3.6-3.6V262.871a3.6,3.6,0,0,1,3.6-3.6h0a3.6,3.6,0,0,1,3.6,3.6Z" transform="translate(44.638 52.376)" fill="#7cc042"/>
    <path id="Path_4721" data-name="Path 4721" d="M533.279,276.819A13.01,13.01,0,0,0,520.5,287.4h25.551A13.008,13.008,0,0,0,533.279,276.819Z" transform="translate(27.309 61.806)" fill="#af83ba" stroke="#af83ba" stroke-linecap="round" stroke-linejoin="round" stroke-width="0.609"/>
    <path id="Path_4722" data-name="Path 4722" d="M554.161,277.01a13.007,13.007,0,0,0-12.774,10.579h25.55A13.008,13.008,0,0,0,554.161,277.01Z" transform="translate(38.532 61.909)" fill="#af83ba" stroke="#af83ba" stroke-linecap="round" stroke-linejoin="round" stroke-width="0.609"/>
    <path id="Path_4723" data-name="Path 4723" d="M512.147,208.2c1.173-21.689,19.431-38.336,40.781-37.181,21.325,1.153,37.667,19.629,36.536,41.285l5.376-2.323c1.09-25.325-17.372-46.813-41.482-48.117-24.283-1.313-45.088,18.344-46.47,43.906-.009.149-.008.3-.014.444l5.266,2.251C512.143,208.378,512.143,208.29,512.147,208.2Z" transform="translate(19.985 0)" fill="#bbc7c4" stroke="#ffe800" stroke-linecap="round" stroke-linejoin="round" stroke-width="0.825" opacity="0.4"/>
    <path id="Path_4724" data-name="Path 4724" d="M512.147,210.053c1.173-21.689,19.431-38.336,40.781-37.181,21.325,1.153,37.667,19.629,36.536,41.285l5.376-2.323c1.09-25.325-17.372-46.813-41.482-48.117-24.283-1.313-45.088,18.344-46.47,43.906-.009.149-.008.3-.014.444l5.266,2.251C512.143,210.229,512.143,210.141,512.147,210.053Z" transform="translate(19.985 0.995)" fill="#ffe800" stroke="#ffe800" stroke-linecap="round" stroke-linejoin="round" stroke-width="0.825"/>
    <path id="Path_4725" data-name="Path 4725" d="M516.793,210.107a8.869,8.869,0,0,1-7.942,9.707h0a8.868,8.868,0,0,1-9.706-7.942l-1.116-11.158a8.867,8.867,0,0,1,7.942-9.705h0a8.867,8.867,0,0,1,9.706,7.941Z" transform="translate(15.208 15.67)" fill="#211f1f" opacity="0.2"/>
    <path id="Path_4726" data-name="Path 4726" d="M517.75,208.43a8.866,8.866,0,0,1-7.941,9.705h0A8.867,8.867,0,0,1,500.1,210.2l-1.116-11.158a8.866,8.866,0,0,1,7.942-9.705h0a8.867,8.867,0,0,1,9.705,7.941Z" transform="translate(15.723 14.769)" fill="#e60c88" stroke="#e60c88" stroke-miterlimit="10" stroke-width="1.076"/>
    <path id="Path_4727" data-name="Path 4727" d="M512.006,205.328a4.857,4.857,0,0,1-4.484,5.2h0a4.856,4.856,0,0,1-5.2-4.485l-.581-7.864a4.855,4.855,0,0,1,4.485-5.2h0a4.857,4.857,0,0,1,5.2,4.484Z" transform="translate(17.219 16.747)" fill="#ea629f"/>
    <path id="Path_4728" data-name="Path 4728" d="M552.026,174.973a42.109,42.109,0,0,0-5.631.833c-28.134,6.391-43.541,44.14-34.416,84.314s39.332,67.56,67.465,61.169a37.29,37.29,0,0,0,8.257-2.932l3.359-2.151c12.156-6.774,18.99-20.547,15.867-34.291A30.1,30.1,0,0,0,601.87,270.8a79.322,79.322,0,0,1-11.209-22.558,73.914,73.914,0,0,1-3.849-25.053c.44-11.329,3.917-21.615-1.929-32.128a31.892,31.892,0,0,0-26.69-15.964S553.076,174.881,552.026,174.973Z" transform="translate(21.316 7.065)" fill="#638c1c"/>
    <path id="Path_4729" data-name="Path 4729" d="M549.54,173.563a41.894,41.894,0,0,0-5.631.833c-28.133,6.391-43.542,44.14-34.414,84.314s39.331,67.56,67.465,61.169a37.309,37.309,0,0,0,8.256-2.932l3.359-2.152c12.158-6.772,18.991-20.545,15.869-34.29a30.1,30.1,0,0,0-5.058-11.118,79.32,79.32,0,0,1-11.209-22.558,73.958,73.958,0,0,1-3.85-25.055c.44-11.327,3.917-21.614-1.929-32.127a31.888,31.888,0,0,0-26.689-15.964S550.59,173.471,549.54,173.563Z" transform="translate(19.981 6.307)" fill="#7cc042"/>
    <path id="Path_4730" data-name="Path 4730" d="M595.963,235.683c3.273-2.324,4.119,6.986,5.058,11.117,3.122,13.744-3.713,27.517-15.869,34.291l-3.359,2.151a37.309,37.309,0,0,1-8.256,2.932c-22.443,5.1-46.2-11.3-59.532-38.534C514.005,247.64,556.838,263.464,595.963,235.683Z" transform="translate(23.817 39.504)" fill="#c0df88" opacity="0.1"/>
    <g id="Group_4715" data-name="Group 4715" transform="translate(570.07 180.087)" opacity="0.1">
      <path id="Path_4731" data-name="Path 4731" d="M589.184,279.7a30.161,30.161,0,0,0-4.889-11.018,79.363,79.363,0,0,1-10.837-22.357,74.964,74.964,0,0,1-3.724-24.829c.426-11.227,3.788-21.42-1.865-31.839a30.728,30.728,0,0,0-25.8-15.821s-4.947-.212-5.962-.12c-.374.034-.747.089-1.122.131a30.717,30.717,0,0,1,25.667,15.81c5.653,10.419,2.291,20.612,1.865,31.839a74.963,74.963,0,0,0,3.722,24.829,79.408,79.408,0,0,0,10.839,22.357,30.161,30.161,0,0,1,4.889,11.018,31.473,31.473,0,0,1-15.343,33.982l-3.247,2.132A34.484,34.484,0,0,1,551,319.436a35.1,35.1,0,0,0,19.594-3.619l3.248-2.132A31.474,31.474,0,0,0,589.184,279.7Z" transform="translate(-534.981 -173.696)" fill="#5d7261"/>
    </g>
    <path id="Path_4732" data-name="Path 4732" d="M542.275,206.879a15.448,15.448,0,0,1-30.8-2.211" transform="translate(22.436 23.034)" fill="none" stroke="#211f1f" stroke-linecap="round" stroke-linejoin="round" stroke-width="1.693" opacity="0.1"/>
    <path id="Path_4733" data-name="Path 4733" d="M578.367,212.84a10.763,10.763,0,0,1-12.131,9.2h0a10.764,10.764,0,0,1-9.2-12.13l1.856-13.486a10.765,10.765,0,0,1,12.131-9.2h0a10.764,10.764,0,0,1,9.2,12.131Z" transform="translate(46.888 13.606)" fill="#e60c88" stroke="#e60c88" stroke-miterlimit="10" stroke-width="1.306"/>
    <path id="Path_4734" data-name="Path 4734" d="M571.746,209.75a5.891,5.891,0,0,1-6.961,4.581h0a5.892,5.892,0,0,1-4.581-6.963L562.137,198a5.891,5.891,0,0,1,6.961-4.581h0a5.893,5.893,0,0,1,4.581,6.963Z" transform="translate(48.577 16.921)" fill="#ea629f"/>
    <path id="Path_4735" data-name="Path 4735" d="M515.828,258.717c-9.126-40.175,6.282-77.923,34.414-84.314a38.832,38.832,0,0,1,4.472-.7c-.049,0-.1-.008-.144-.011,0,0-5.116-.214-6.166-.121a42.108,42.108,0,0,0-5.631.833c-28.134,6.391-43.542,44.14-34.414,84.314,8.637,38.021,36.153,64.568,62.925,61.89C547.029,318.242,523.662,293.2,515.828,258.717Z" transform="translate(19.37 6.31)" fill="#c0df88" opacity="0.1"/>
    <circle id="Ellipse_1121" data-name="Ellipse 1121" cx="15.822" cy="15.822" r="15.822" transform="translate(534.319 211.064)" fill="#fff"/>
    <circle id="Ellipse_1122" data-name="Ellipse 1122" cx="12.976" cy="12.976" r="12.976" transform="translate(536.328 214.745)" fill="#f1f1f1"/>
    <path id="Path_4736" data-name="Path 4736" d="M515.662,194.014a11.362,11.362,0,0,1,15.156-2.255" transform="translate(24.708 15.057)" fill="none" stroke="#638c1c" stroke-linecap="round" stroke-linejoin="round" stroke-width="2.089"/>
    <path id="Path_4737" data-name="Path 4737" d="M537.834,190.724a11.362,11.362,0,0,1,14.886,3.634" transform="translate(36.622 14.791)" fill="none" stroke="#638c1c" stroke-linecap="round" stroke-linejoin="round" stroke-width="2.089"/>
    <ellipse id="Ellipse_1123" data-name="Ellipse 1123" cx="6.077" cy="6.388" rx="6.077" ry="6.388" transform="matrix(0.326, -0.945, 0.945, 0.326, 576.676, 188.246)" fill="#e83c90"/>
    <path id="Path_4738" data-name="Path 4738" d="M537.649,165.024,552.4,182.011,530.315,186.3Z" transform="translate(32.582 1.731)" fill="#e83c90" stroke="#e83c90" stroke-linecap="round" stroke-linejoin="round" stroke-width="2.023"/>
    <path id="Path_4739" data-name="Path 4739" d="M559.439,194.558l-14.756-16.987,22.089-4.285Z" transform="translate(40.303 6.17)" fill="#e83c90" stroke="#e83c90" stroke-linecap="round" stroke-linejoin="round" stroke-width="2.023"/>
    <circle id="Ellipse_1124" data-name="Ellipse 1124" cx="3.57" cy="3.57" r="3.57" transform="translate(549.614 219.331)" fill="#211f1f"/>
    <path id="Path_4740" data-name="Path 4740" d="M561.68,206.879a15.448,15.448,0,0,1-30.8-2.211" transform="translate(32.864 23.034)" fill="none" stroke="#211f1f" stroke-linecap="round" stroke-linejoin="round" stroke-width="1.693" opacity="0.1"/>
    <path id="Path_4741" data-name="Path 4741" d="M557.488,193.845a15.815,15.815,0,0,0-14.916,10.588,15.821,15.821,0,1,0,0,10.47,15.816,15.816,0,1,0,14.916-21.057Z" transform="translate(22.651 17.218)" fill="#fff"/>
    <circle id="Ellipse_1125" data-name="Ellipse 1125" cx="8.972" cy="8.972" r="8.972" transform="translate(571.64 213.968)" fill="#9867a8"/>
    <circle id="Ellipse_1126" data-name="Ellipse 1126" cx="3.57" cy="3.57" r="3.57" transform="translate(579.446 219.331)" fill="#211f1f"/>
    <circle id="Ellipse_1127" data-name="Ellipse 1127" cx="2.119" cy="2.119" r="2.119" transform="translate(540.159 226.056)" fill="#fdf9e7"/>
    <circle id="Ellipse_1128" data-name="Ellipse 1128" cx="3.777" cy="3.777" r="3.777" transform="translate(540.62 217.017)" fill="#fdf9e7"/>
    <circle id="Ellipse_1129" data-name="Ellipse 1129" cx="3.777" cy="3.777" r="3.777" transform="translate(585.945 229.173)" fill="#fdf9e7"/>
    <circle id="Ellipse_1130" data-name="Ellipse 1130" cx="8.972" cy="8.972" r="8.972" transform="translate(541.807 213.968)" fill="#9867a8"/>
    <circle id="Ellipse_1131" data-name="Ellipse 1131" cx="3.57" cy="3.57" r="3.57" transform="translate(549.447 218.917)" fill="#211f1f"/>
    <circle id="Ellipse_1132" data-name="Ellipse 1132" cx="5.149" cy="5.149" r="5.149" transform="translate(534.342 246.91)" fill="#ea5f9d" opacity="0.5"/>
    <circle id="Ellipse_1133" data-name="Ellipse 1133" cx="5.149" cy="5.149" r="5.149" transform="translate(589.722 246.91)" fill="#ea5f9d" opacity="0.5"/>
    <g id="Group_4716" data-name="Group 4716" transform="translate(554.633 273.109)">
      <path id="Path_4742" data-name="Path 4742" d="M555.688,236.321a15.676,15.676,0,0,1-30.747,6.054" transform="translate(-524.94 -233.065)" fill="none" stroke="#231f20" stroke-linecap="round" stroke-linejoin="round" stroke-width="1.718" opacity="0.1"/>
      <path id="Path_4743" data-name="Path 4743" d="M544.021,244.808a18.952,18.952,0,0,1-16.278-3.957l-.909.2a15.8,15.8,0,0,0,30.84-6.851l-.583.129A18.949,18.949,0,0,1,544.021,244.808Z" transform="translate(-523.922 -234.203)" fill="#fff" stroke="#231f20" stroke-linecap="round" stroke-linejoin="round" stroke-width="1.691"/>
    </g>
  </g>
</svg>
