<svg xmlns="http://www.w3.org/2000/svg" width="103.8" height="197.844" viewBox="0 0 103.8 197.844">
  <g id="Group_4874" data-name="Group 4874" transform="translate(-89.577 -139.147)">
    <path id="Path_5056" data-name="Path 5056" d="M168.562,175.3a4.864,4.864,0,1,1-4.864-4.864A4.862,4.862,0,0,1,168.562,175.3Z" transform="translate(24.516 10.967)" fill="#f48320" stroke="#f48320" stroke-miterlimit="10" stroke-width="0.597" fill-rule="evenodd"/>
    <path id="Path_5057" data-name="Path 5057" d="M164.933,179.256a.735.735,0,0,0,1.47,0V161.1a.735.735,0,0,0-1.47,0Z" transform="translate(26.675 7.403)" fill="#f48320" stroke="#f48320" stroke-miterlimit="10" stroke-width="0.597" fill-rule="evenodd"/>
    <g id="Group_4870" data-name="Group 4870" transform="translate(160.844 139.453)">
      <path id="Path_5058" data-name="Path 5058" d="M151.939,161.335a4.864,4.864,0,1,1-4.863-4.864A4.863,4.863,0,0,1,151.939,161.335Z" transform="translate(-142.212 -133.429)" fill="#f48320" stroke="#f48320" stroke-miterlimit="10" stroke-width="0.597" fill-rule="evenodd"/>
      <path id="Path_5059" data-name="Path 5059" d="M148.31,165.29a.735.735,0,1,0,1.47,0V147.138a.735.735,0,1,0-1.47,0Z" transform="translate(-140.053 -136.994)" fill="#f48320" stroke="#f48320" stroke-miterlimit="10" stroke-width="0.597" fill-rule="evenodd"/>
      <path id="Path_5060" data-name="Path 5060" d="M163.567,156.235a4.863,4.863,0,1,1-4.864-4.864A4.863,4.863,0,0,1,163.567,156.235Z" transform="translate(-138.096 -135.234)" fill="#f48320" stroke="#f48320" stroke-miterlimit="10" stroke-width="0.597" fill-rule="evenodd"/>
      <path id="Path_5061" data-name="Path 5061" d="M159.939,160.191a.735.735,0,0,0,1.47,0V142.036a.735.735,0,0,0-1.47,0Z" transform="translate(-135.937 -138.799)" fill="#f48320" stroke="#f48320" stroke-miterlimit="10" stroke-width="0.597" fill-rule="evenodd"/>
      <path id="Path_5062" data-name="Path 5062" d="M149.695,147.456v3.992l14.447-6.284V141.2ZM149,153.2a.689.689,0,0,1-.692-.691V147a.691.691,0,0,1,.414-.634l15.831-6.859a.692.692,0,0,1,.968.634v5.47a.693.693,0,0,1-.413.634l-15.831,6.89A.69.69,0,0,1,149,153.2Z" transform="translate(-140.053 -139.453)" fill="#f48320" stroke="#f48320" stroke-miterlimit="10" stroke-width="0.597"/>
    </g>
    <path id="Path_5063" data-name="Path 5063" d="M135.816,159.955a4.864,4.864,0,1,1-4.864-4.864A4.862,4.862,0,0,1,135.816,159.955Z" transform="translate(12.925 5.536)" fill="#f48320" stroke="#f48320" stroke-miterlimit="10" stroke-width="0.597" fill-rule="evenodd"/>
    <path id="Path_5064" data-name="Path 5064" d="M132.187,163.911a.735.735,0,1,0,1.47,0V145.757a.735.735,0,1,0-1.47,0Z" transform="translate(15.083 1.971)" fill="#f48320" stroke="#f48320" stroke-miterlimit="10" stroke-width="0.597" fill-rule="evenodd"/>
    <path id="Path_5065" data-name="Path 5065" d="M130.243,290.522a3.171,3.171,0,0,1-3.171,3.171h0a3.171,3.171,0,0,1-3.172-3.171V263.583a3.172,3.172,0,0,1,3.172-3.171h0a3.172,3.172,0,0,1,3.171,3.171Z" transform="translate(12.15 42.818)" fill="#7cc042"/>
    <path id="Path_5066" data-name="Path 5066" d="M150.685,290.522a3.171,3.171,0,0,1-3.172,3.171h0a3.171,3.171,0,0,1-3.171-3.171V263.583a3.172,3.172,0,0,1,3.171-3.171h0a3.172,3.172,0,0,1,3.172,3.171Z" transform="translate(19.386 42.818)" fill="#7cc042"/>
    <path id="Path_5067" data-name="Path 5067" d="M123.347,277.962a11.457,11.457,0,0,0-11.252,9.317h22.5A11.457,11.457,0,0,0,123.347,277.962Z" transform="translate(7.971 49.03)" fill="#375542" stroke="#375542" stroke-linecap="round" stroke-linejoin="round" stroke-width="0.846"/>
    <path id="Path_5068" data-name="Path 5068" d="M144.23,278.153a11.457,11.457,0,0,0-11.252,9.317h22.5A11.457,11.457,0,0,0,144.23,278.153Z" transform="translate(15.363 49.098)" fill="#375542" stroke="#375542" stroke-linecap="round" stroke-linejoin="round" stroke-width="0.846"/>
    <path id="Path_5069" data-name="Path 5069" d="M103.109,203.809c1.033-19.1,17.114-33.762,35.917-32.746,18.781,1.017,33.173,17.289,32.177,36.361l4.734-2.046c.961-22.3-15.3-41.229-36.533-42.377-21.386-1.156-39.71,16.156-40.927,38.668-.007.13-.005.26-.011.391l4.636,1.981C103.106,203.965,103.1,203.888,103.109,203.809Z" transform="translate(3.147 8.316)" fill="#bbc7c4" stroke="#ffe800" stroke-linecap="round" stroke-linejoin="round" stroke-width="0.825" opacity="0.4"/>
    <path id="Path_5070" data-name="Path 5070" d="M103.109,205.66c1.033-19.1,17.114-33.763,35.917-32.746,18.781,1.016,33.173,17.289,32.177,36.361l4.734-2.046c.961-22.3-15.3-41.229-36.533-42.377-21.386-1.156-39.71,16.156-40.927,38.668-.007.13-.005.26-.011.39l4.636,1.982C103.106,205.816,103.1,205.739,103.109,205.66Z" transform="translate(3.147 8.972)" fill="#ffe800" stroke="#ffe800" stroke-linecap="round" stroke-linejoin="round" stroke-width="0.825"/>
    <path id="Path_5071" data-name="Path 5071" d="M106.14,208.967a7.808,7.808,0,0,1-6.993,8.548h0a7.809,7.809,0,0,1-8.548-6.993l-.983-9.827a7.809,7.809,0,0,1,6.995-8.548h0a7.809,7.809,0,0,1,8.548,6.993Z" transform="translate(0 18.639)" fill="#211f1f" opacity="0.2"/>
    <path id="Path_5072" data-name="Path 5072" d="M107.1,207.29a7.809,7.809,0,0,1-6.993,8.548h0a7.811,7.811,0,0,1-8.549-6.995l-.982-9.826a7.81,7.81,0,0,1,6.993-8.549h0a7.809,7.809,0,0,1,8.548,6.995Z" transform="translate(0.339 18.045)" fill="#ff4438" stroke="#ff4438" stroke-miterlimit="10" stroke-width="1.076"/>
    <path id="Path_5073" data-name="Path 5073" d="M102.371,205a4.274,4.274,0,0,1-3.948,4.579h0a4.276,4.276,0,0,1-4.581-3.948L93.33,198.7a4.277,4.277,0,0,1,3.95-4.579h0a4.274,4.274,0,0,1,4.579,3.95Z" transform="translate(1.324 19.348)" fill="#f5333f"/>
    <path id="Path_5074" data-name="Path 5074" d="M138.527,176.113a36.671,36.671,0,0,0-4.961.734c-24.777,5.629-38.346,38.874-30.309,74.257s34.64,59.5,59.417,53.872a32.857,32.857,0,0,0,7.271-2.582l2.958-1.9c10.707-5.964,16.726-18.095,13.976-30.2a26.486,26.486,0,0,0-4.453-9.792,69.788,69.788,0,0,1-9.872-19.867,65.1,65.1,0,0,1-3.392-22.066c.389-9.976,3.451-19.036-1.7-28.294a28.088,28.088,0,0,0-23.507-14.06S139.45,176.032,138.527,176.113Z" transform="translate(4.023 12.97)" fill="#638c1c"/>
    <path id="Path_5075" data-name="Path 5075" d="M136.042,174.7a36.649,36.649,0,0,0-4.96.734c-24.778,5.629-38.348,38.874-30.31,74.255s34.64,59.5,59.418,53.872a32.791,32.791,0,0,0,7.271-2.582l2.958-1.894c10.706-5.966,16.724-18.1,13.976-30.2a26.514,26.514,0,0,0-4.455-9.791,69.877,69.877,0,0,1-9.872-19.867,65.1,65.1,0,0,1-3.39-22.066c.387-9.976,3.45-19.036-1.7-28.294a28.081,28.081,0,0,0-23.507-14.06S136.967,174.622,136.042,174.7Z" transform="translate(3.144 12.471)" fill="#7cc042"/>
    <path id="Path_5076" data-name="Path 5076" d="M177.778,236.781c2.883-2.046,3.627,6.154,4.453,9.792,2.75,12.1-3.269,24.235-13.976,30.2l-2.957,1.894a32.866,32.866,0,0,1-7.272,2.582c-19.765,4.49-40.691-9.95-52.429-33.938C105.6,247.313,143.319,261.249,177.778,236.781Z" transform="translate(5.671 34.338)" fill="#c0df88" opacity="0.1"/>
    <g id="Group_4871" data-name="Group 4871" transform="translate(139.669 187.365)" opacity="0.1">
      <path id="Path_5077" data-name="Path 5077" d="M174.31,268.2A26.567,26.567,0,0,0,170,258.5a69.935,69.935,0,0,1-9.546-19.69,66.054,66.054,0,0,1-3.278-21.867c.375-9.888,3.336-18.865-1.642-28.041a27.061,27.061,0,0,0-22.727-13.934s-4.357-.187-5.251-.106c-.33.028-.659.077-.988.114a27.059,27.059,0,0,1,22.6,13.926c4.979,9.176,2.017,18.153,1.642,28.041a66.019,66.019,0,0,0,3.278,21.867,69.969,69.969,0,0,0,9.544,19.69,26.569,26.569,0,0,1,4.307,9.7,27.722,27.722,0,0,1-13.513,29.93l-2.86,1.878a30.388,30.388,0,0,1-10.9,3.187,30.916,30.916,0,0,0,17.257-3.187l2.86-1.878A27.72,27.72,0,0,0,174.31,268.2Z" transform="translate(-126.573 -174.839)" fill="#5d7261"/>
    </g>
    <path id="Path_5078" data-name="Path 5078" d="M146.331,237.361a13.6,13.6,0,0,1-26.684,5.253" transform="translate(10.644 34.658)" fill="none" stroke="#211f1f" stroke-linecap="round" stroke-linejoin="round" stroke-width="1.693" opacity="0.1"/>
    <path id="Path_5079" data-name="Path 5079" d="M130.187,207.757a13.6,13.6,0,0,1-27.127-1.947" transform="translate(4.761 23.489)" fill="none" stroke="#211f1f" stroke-linecap="round" stroke-linejoin="round" stroke-width="1.693" opacity="0.1"/>
    <path id="Path_5080" data-name="Path 5080" d="M167.4,210.914a9.48,9.48,0,0,1-10.683,8.1h0a9.48,9.48,0,0,1-8.1-10.684l1.634-11.876a9.478,9.478,0,0,1,10.684-8.1h0a9.477,9.477,0,0,1,8.1,10.683Z" transform="translate(20.868 17.279)" fill="#ff4438" stroke="#ff4438" stroke-miterlimit="10" stroke-width="1.076"/>
    <path id="Path_5081" data-name="Path 5081" d="M161.946,208.93a5.19,5.19,0,0,1-6.132,4.035h0a5.19,5.19,0,0,1-4.034-6.132l1.7-8.255a5.192,5.192,0,0,1,6.132-4.035h0a5.19,5.19,0,0,1,4.035,6.132Z" transform="translate(21.981 19.463)" fill="#f5333f"/>
    <path id="Path_5082" data-name="Path 5082" d="M106.215,249.7c-8.039-35.382,5.531-68.628,30.309-74.257a33.927,33.927,0,0,1,3.937-.617c-.042,0-.084-.008-.126-.009,0,0-4.507-.188-5.431-.107a37.1,37.1,0,0,0-4.961.734C105.167,181.072,91.6,214.317,99.635,249.7c7.607,33.484,31.84,56.866,55.42,54.506C133.693,302.123,113.114,280.071,106.215,249.7Z" transform="translate(2.741 12.473)" fill="#c0df88" opacity="0.1"/>
    <path id="Path_5083" data-name="Path 5083" d="M145.325,236.459a13.6,13.6,0,0,1-26.684,5.253" transform="translate(10.288 34.339)" fill="none" stroke="#211f1f" stroke-linecap="round" stroke-linejoin="round" stroke-width="2.539"/>
    <circle id="Ellipse_1194" data-name="Ellipse 1194" cx="13.934" cy="13.934" r="13.934" transform="translate(108.182 214.647)" fill="#fff"/>
    <circle id="Ellipse_1195" data-name="Ellipse 1195" cx="11.429" cy="11.429" r="11.429" transform="translate(109.951 217.889)" fill="#f1f1f1"/>
    <path id="Path_5084" data-name="Path 5084" d="M107.253,194.656a10.01,10.01,0,0,1,13.349-1.985" transform="translate(6.257 18.235)" fill="none" stroke="#638c1c" stroke-linecap="round" stroke-linejoin="round" stroke-width="2.089"/>
    <path id="Path_5085" data-name="Path 5085" d="M129.426,191.7a10.008,10.008,0,0,1,13.111,3.2" transform="translate(14.106 18.059)" fill="none" stroke="#638c1c" stroke-linecap="round" stroke-linejoin="round" stroke-width="2.089"/>
    <circle id="Ellipse_1196" data-name="Ellipse 1196" cx="3.144" cy="3.144" r="3.144" transform="translate(121.652 221.928)" fill="#211f1f"/>
    <path id="Path_5086" data-name="Path 5086" d="M149.592,207.757a13.6,13.6,0,0,1-27.127-1.947" transform="translate(11.63 23.489)" fill="none" stroke="#211f1f" stroke-linecap="round" stroke-linejoin="round" stroke-width="1.693" opacity="0.1"/>
    <path id="Path_5087" data-name="Path 5087" d="M143.634,194.988a13.929,13.929,0,0,0-13.136,9.324,13.935,13.935,0,1,0,0,9.221,13.929,13.929,0,1,0,13.136-18.544Z" transform="translate(4.902 19.659)" fill="#fff"/>
    <circle id="Ellipse_1197" data-name="Ellipse 1197" cx="7.901" cy="7.901" r="7.901" transform="translate(141.051 217.204)" fill="#a67d4f"/>
    <circle id="Ellipse_1198" data-name="Ellipse 1198" cx="3.144" cy="3.144" r="3.144" transform="translate(147.926 221.928)" fill="#211f1f"/>
    <circle id="Ellipse_1199" data-name="Ellipse 1199" cx="1.866" cy="1.866" r="1.866" transform="translate(113.326 227.851)" fill="#fdf9e7"/>
    <circle id="Ellipse_1200" data-name="Ellipse 1200" cx="3.326" cy="3.326" r="3.326" transform="translate(113.731 219.89)" fill="#fdf9e7"/>
    <circle id="Ellipse_1201" data-name="Ellipse 1201" cx="3.326" cy="3.326" r="3.326" transform="translate(153.65 230.596)" fill="#fdf9e7"/>
    <circle id="Ellipse_1202" data-name="Ellipse 1202" cx="7.901" cy="7.901" r="7.901" transform="translate(114.777 217.204)" fill="#a67d4f"/>
    <circle id="Ellipse_1203" data-name="Ellipse 1203" cx="3.144" cy="3.144" r="3.144" transform="translate(121.506 221.563)" fill="#211f1f"/>
    <g id="Group_4872" data-name="Group 4872" transform="translate(107.797 228.387)">
      <circle id="Ellipse_1204" data-name="Ellipse 1204" cx="16.265" cy="16.265" r="16.265" fill="#7cc042"/>
    </g>
    <g id="Group_4873" data-name="Group 4873" transform="translate(130.473 228.387)">
      <circle id="Ellipse_1205" data-name="Ellipse 1205" cx="16.265" cy="16.265" r="16.265" fill="#7cc042"/>
    </g>
  </g>
</svg>
