<svg xmlns="http://www.w3.org/2000/svg" width="22.811" height="29.794" viewBox="0 0 22.811 29.794">
  <g id="Group_1047" data-name="Group 1047" transform="translate(-1137.332 -594.962)">
    <path id="Path_66" data-name="Path 66" d="M1159.143,617.645v10.5a3.017,3.017,0,0,1-3.016,3.016h-14.779a3.017,3.017,0,0,1-3.016-3.016v-10.5a3.029,3.029,0,0,1,3.016-3.016h14.779a3.014,3.014,0,0,1,3.016,3.016Z" transform="translate(0 -7.407)" fill="none" stroke="#a1d858" stroke-linecap="round" stroke-linejoin="round" stroke-width="2"/>
    <path id="Path_67" data-name="Path 67" d="M1157.8,607.182v-4.741a6.48,6.48,0,0,0-12.959,0v4.741Z" transform="translate(-2.582)" fill="none" stroke="#a1d858" stroke-linecap="round" stroke-linejoin="round" stroke-width="2"/>
    <path id="Path_68" data-name="Path 68" d="M1153.3,624.607V622.86a1.377,1.377,0,0,1,1.381-1.382,1.369,1.369,0,0,1,1.374,1.382v1.747" transform="translate(-5.94 -10.125)" fill="none" stroke="#a1d858" stroke-linecap="round" stroke-linejoin="round" stroke-width="2"/>
    <path id="Path_69" data-name="Path 69" d="M1156.529,628.806a2.757,2.757,0,1,1-2.757-2.756A2.757,2.757,0,0,1,1156.529,628.806Z" transform="translate(-5.033 -11.939)" fill="none" stroke="#a1d858" stroke-linecap="round" stroke-linejoin="round" stroke-width="2"/>
  </g>
</svg>
