<svg id="Group_4837" data-name="Group 4837" xmlns="http://www.w3.org/2000/svg" width="34.856" height="47.914" viewBox="0 0 34.856 47.914">
  <path id="Path_4971" data-name="Path 4971" d="M149.618,388.1v6.074a1.548,1.548,0,1,0,2.986,0V388.1Z" transform="translate(-133.684 -348.866)" fill="#5796f4"/>
  <path id="Path_4972" data-name="Path 4972" d="M156.585,398.133H141.956a1.609,1.609,0,0,1,0-3.218h14.629a1.609,1.609,0,1,1,0,3.218Z" transform="translate(-131.844 -350.219)" fill="#5796f4"/>
  <path id="Path_4973" data-name="Path 4973" d="M160.865,362.01a12.472,12.472,0,1,1-24.944,0V351.621a12.472,12.472,0,0,1,24.944,0Z" transform="translate(-130.965 -339.15)" fill="#77c8f4"/>
  <path id="Path_4974" data-name="Path 4974" d="M163.624,351.62v10.39a12.472,12.472,0,0,1-12.472,12.473,12.832,12.832,0,0,1-1.332-.07,12.968,12.968,0,0,0,8.579-12.2V351.419a12.962,12.962,0,0,0-8.579-12.2,12.608,12.608,0,0,1,1.332-.07,12.468,12.468,0,0,1,12.472,12.469Z" transform="translate(-133.724 -339.15)" fill="#5796f4" opacity="0.5"/>
  <path id="Path_4975" data-name="Path 4975" d="M135.921,365.673v1.6a12.472,12.472,0,1,0,24.944,0v-1.6Z" transform="translate(-130.965 -344.415)" fill="#5796f4" opacity="0.5"/>
  <path id="Path_4976" data-name="Path 4976" d="M158.4,365.673v1.8a12.967,12.967,0,0,1-8.579,12.2,12.607,12.607,0,0,0,1.332.071,12.472,12.472,0,0,0,12.472-12.473v-1.6Z" transform="translate(-133.724 -344.415)" fill="#5796f4"/>
  <path id="Path_4977" data-name="Path 4977" d="M132.663,365.775a1.172,1.172,0,0,0-1.17,1.172,15.672,15.672,0,0,0,31.344,0,1.171,1.171,0,1,0-2.341,0,13.331,13.331,0,0,1-26.662,0A1.174,1.174,0,0,0,132.663,365.775Zm14.5,18.582a17.452,17.452,0,0,1-17.427-17.409,2.926,2.926,0,1,1,5.852-.006,11.576,11.576,0,0,0,23.151,0,2.926,2.926,0,1,1,5.853.006A17.455,17.455,0,0,1,147.165,384.357Z" transform="translate(-129.738 -344.086)" fill="#5796f4"/>
  <path id="Path_4978" data-name="Path 4978" d="M145.341,357.774a35.269,35.269,0,0,1-.743,7.477c-.234.8-.672,1.5-1.5,1.5l-.026,0-.028,0c-.828,0-1.266-.7-1.5-1.5a35.322,35.322,0,0,1-.743-7.477,51.407,51.407,0,0,1,.743-7.529c.165-1.083.672-1.5,1.5-1.5l.028,0,.026,0c.828,0,1.335.418,1.5,1.5A51.411,51.411,0,0,1,145.341,357.774Z" transform="translate(-131.934 -341.054)" fill="#fff" opacity="0.302" style="mix-blend-mode: screen;isolation: isolate"/>
  <path id="Path_4979" data-name="Path 4979" d="M142.539,353.982a1.462,1.462,0,0,1-1.463,1.464h-5.155v-1.171a12.3,12.3,0,0,1,.123-1.755h5.032A1.463,1.463,0,0,1,142.539,353.982Z" transform="translate(-130.965 -341.804)" fill="#5796f4"/>
  <path id="Path_4980" data-name="Path 4980" d="M144.935,362.246a1.462,1.462,0,0,1-1.462,1.462h-7.552v-2.925h7.552A1.463,1.463,0,0,1,144.935,362.246Z" transform="translate(-130.965 -343.444)" fill="#5796f4"/>
  <path id="Path_4981" data-name="Path 4981" d="M165.4,354.274v1.171h-5.158a1.463,1.463,0,0,1,0-2.926h5.035A12.3,12.3,0,0,1,165.4,354.274Z" transform="translate(-135.503 -341.804)" fill="#5796f4"/>
  <path id="Path_4982" data-name="Path 4982" d="M164.81,360.782v2.925h-7.552a1.463,1.463,0,1,1,0-2.925Z" transform="translate(-134.91 -343.444)" fill="#5796f4"/>
</svg>
