<svg id="Group_4835" data-name="Group 4835" xmlns="http://www.w3.org/2000/svg" width="39.779" height="44.992" viewBox="0 0 39.779 44.992">
  <path id="Path_4952" data-name="Path 4952" d="M709.981,241.172l24.754,9.043a1.388,1.388,0,1,1-.793,2.66l-24.753-9.042Z" transform="translate(-701.685 -239.933)" fill="#cfd5e4"/>
  <path id="Path_4953" data-name="Path 4953" d="M740.016,249.493a2.222,2.222,0,0,0-2.222,2.222v4.258h4.444v-4.258A2.222,2.222,0,0,0,740.016,249.493Z" transform="translate(-707.364 -241.585)" fill="#e1e7f4"/>
  <path id="Path_4954" data-name="Path 4954" d="M742.131,289.758h-6.608v3.354a1.458,1.458,0,0,0,1.457,1.457h3.693a1.457,1.457,0,0,0,1.457-1.457Z" transform="translate(-706.913 -249.578)" fill="#495979"/>
  <path id="Path_4955" data-name="Path 4955" d="M738.361,294.569h2.876a1.457,1.457,0,0,0,1.457-1.457v-3.354h-2.876v3.354A1.458,1.458,0,0,1,738.361,294.569Z" transform="translate(-707.476 -249.578)" fill="#344060"/>
  <path id="Path_4956" data-name="Path 4956" d="M705.519,289.758h6.607v3.354a1.457,1.457,0,0,1-1.456,1.457h-3.694a1.457,1.457,0,0,1-1.456-1.457Z" transform="translate(-700.957 -249.578)" fill="#495979"/>
  <path id="Path_4957" data-name="Path 4957" d="M708.357,294.569h2.876a1.457,1.457,0,0,0,1.457-1.457v-3.354h-2.877v3.354A1.458,1.458,0,0,1,708.357,294.569Z" transform="translate(-701.52 -249.578)" fill="#344060"/>
  <rect id="Rectangle_2424" data-name="Rectangle 2424" width="39.779" height="29.38" rx="4.588" transform="translate(0 12.538)" fill="#cca7eb"/>
  <path id="Path_4958" data-name="Path 4958" d="M746.8,282.726c.028-.052.055-.1.081-.159a3.66,3.66,0,0,0,.363-1.594V258.947a3.677,3.677,0,0,0-3.678-3.677h-5.272c2.032,0,3.677,1.645,3.677,1.288v22.025c0,4.42-1.646,6.067-3.677,6.067h5.272A3.677,3.677,0,0,0,746.8,282.726Z" transform="translate(-707.462 -242.732)" fill="#af93c3"/>
  <path id="Rectangle_2425" data-name="Rectangle 2425" d="M3.736,0h24.9a3.736,3.736,0,0,1,3.736,3.736v.686a3.735,3.735,0,0,1-3.735,3.735H3.735A3.735,3.735,0,0,1,0,4.421V3.736A3.736,3.736,0,0,1,3.736,0Z" transform="translate(3.703 16.24)" fill="#e1e7f4"/>
  <rect id="Rectangle_2426" data-name="Rectangle 2426" width="2.125" height="8.156" transform="translate(9.516 16.239)" fill="#f27879"/>
  <path id="Path_4959" data-name="Path 4959" d="M712.635,279.516a4.094,4.094,0,1,1-4.094-4.094A4.094,4.094,0,0,1,712.635,279.516Z" transform="translate(-700.744 -246.732)" fill="#8a78b5"/>
  <path id="Path_4960" data-name="Path 4960" d="M742.811,279.516a4.094,4.094,0,1,1-4.094-4.094A4.094,4.094,0,0,1,742.811,279.516Z" transform="translate(-706.734 -246.732)" fill="#8a78b5"/>
  <path id="Path_4961" data-name="Path 4961" d="M728.875,278.666a.925.925,0,0,0-.925.926v2.972a.925.925,0,1,0,1.85,0v-2.972A.925.925,0,0,0,728.875,278.666Z" transform="translate(-705.41 -247.376)" fill="#8a78b5"/>
  <path id="Path_4962" data-name="Path 4962" d="M724.467,278.666a.926.926,0,0,0-.926.926v2.972a.925.925,0,1,0,1.851,0v-2.972A.925.925,0,0,0,724.467,278.666Z" transform="translate(-704.534 -247.376)" fill="#8a78b5"/>
  <path id="Path_4963" data-name="Path 4963" d="M720.059,278.666a.925.925,0,0,0-.925.926v2.972a.925.925,0,1,0,1.85,0v-2.972A.926.926,0,0,0,720.059,278.666Z" transform="translate(-703.66 -247.376)" fill="#8a78b5"/>
  <path id="Path_4964" data-name="Path 4964" d="M708.781,244.762a1.386,1.386,0,0,1-1.3-1.879l.891-2.358a1.388,1.388,0,1,1,2.6.981l-.891,2.358A1.388,1.388,0,0,1,708.781,244.762Z" transform="translate(-701.329 -239.627)" fill="#e1e7f4"/>
  <path id="Path_4965" data-name="Path 4965" d="M705.757,265.514a15.293,15.293,0,0,1-.672,4.633,1.388,1.388,0,0,1-1.355.931h-.049a1.389,1.389,0,0,1-1.355-.931,15.319,15.319,0,0,1-.671-4.633,22.306,22.306,0,0,1,.671-4.667c.149-.67.608-.93,1.355-.93h.049c.749,0,1.206.26,1.355.93A22.292,22.292,0,0,1,705.757,265.514Z" transform="translate(-700.19 -243.654)" fill="#fff" opacity="0.302" style="mix-blend-mode: screen;isolation: isolate"/>
</svg>
