<svg xmlns="http://www.w3.org/2000/svg" width="32.668" height="41.892" viewBox="0 0 32.668 41.892">
  <g id="Group_4836" data-name="Group 4836" transform="translate(0.25 0.259)">
    <path id="Path_4966" data-name="Path 4966" d="M236.573,205.734a6.142,6.142,0,1,1-6.142-6.143A6.142,6.142,0,0,1,236.573,205.734Z" transform="translate(-224.289 -170.492)" fill="#ff8625" stroke="#ff8625" stroke-miterlimit="10" stroke-width="0.5" fill-rule="evenodd"/>
    <path id="Path_4967" data-name="Path 4967" d="M237.3,201.965a.928.928,0,0,0,1.856,0V179.038a.928.928,0,1,0-1.856,0Z" transform="translate(-226.871 -166.228)" fill="#ff8625" stroke="#ff8625" stroke-miterlimit="10" stroke-width="0.5" fill-rule="evenodd"/>
    <path id="Path_4968" data-name="Path 4968" d="M261.381,194.853a6.142,6.142,0,1,1-6.142-6.142A6.141,6.141,0,0,1,261.381,194.853Z" transform="translate(-229.213 -168.332)" fill="#ff8625" stroke="#ff8625" stroke-miterlimit="10" stroke-width="0.5" fill-rule="evenodd"/>
    <path id="Path_4969" data-name="Path 4969" d="M262.108,191.085a.928.928,0,1,0,1.856,0V168.157a.928.928,0,1,0-1.856,0Z" transform="translate(-231.796 -164.068)" fill="#ff8625" stroke="#ff8625" stroke-miterlimit="10" stroke-width="0.5" fill-rule="evenodd"/>
    <path id="Path_4970" data-name="Path 4970" d="M239.046,173.393v5.041l18.246-7.937v-5Zm-.873,7.251a.873.873,0,0,1-.874-.873v-6.95a.873.873,0,0,1,.524-.8l19.993-8.663a.873.873,0,0,1,1.222.8v6.908a.872.872,0,0,1-.523.8l-19.992,8.7A.871.871,0,0,1,238.174,180.644Z" transform="translate(-226.872 -163.285)" fill="#ff8625" stroke="#ff8625" stroke-miterlimit="10" stroke-width="0.5"/>
  </g>
</svg>
