<svg id="Group_4838" data-name="Group 4838" xmlns="http://www.w3.org/2000/svg" width="34.724" height="35.366" viewBox="0 0 34.724 35.366">
  <path id="Path_4983" data-name="Path 4983" d="M592.493,102.345a5.875,5.875,0,0,0-4.169-1.726h-19.8a1.329,1.329,0,0,0-.119,2.652h2.248c.009.007.016.015.026.024a4.557,4.557,0,0,1-.026,6.47h-2.235a1.329,1.329,0,0,0,.2,2.643h19.708a5.9,5.9,0,0,0,4.169-10.062Z" transform="translate(-559.494 -100.619)" fill="#62c058"/>
  <path id="Path_4984" data-name="Path 4984" d="M584.615,106.514a5.893,5.893,0,0,1-5.893,5.893H559.013a1.329,1.329,0,0,1-.2-2.643h19.945a3.247,3.247,0,0,0,0-6.494H558.8a1.329,1.329,0,0,1,.118-2.652h19.8a5.892,5.892,0,0,1,5.893,5.9Z" transform="translate(-557.588 -100.619)" fill="#a1d858"/>
  <path id="Path_4985" data-name="Path 4985" d="M582.86,107.175a3.247,3.247,0,0,1-3.247,3.247H561.9a4.556,4.556,0,0,0,.026-6.47c-.01-.009-.017-.017-.026-.025h17.709a3.246,3.246,0,0,1,3.247,3.248Z" transform="translate(-558.445 -101.276)" fill="#dfe6f2"/>
  <path id="Path_4986" data-name="Path 4986" d="M582.86,107.175a3.236,3.236,0,0,1-.194,1.108,3.25,3.25,0,0,0-3.053-2.137H563.148a4.537,4.537,0,0,0-1.217-2.195c-.01-.009-.017-.017-.026-.025h17.709a3.246,3.246,0,0,1,3.247,3.248Z" transform="translate(-558.445 -101.276)" fill="#cfd5e3"/>
  <path id="Path_4987" data-name="Path 4987" d="M592.493,131.762a5.869,5.869,0,0,0-4.169-1.726h-19.8a1.328,1.328,0,0,0-.119,2.651h2.248l.026.025a4.557,4.557,0,0,1-.026,6.47h-2.235a1.329,1.329,0,0,0,.2,2.643h19.708a5.9,5.9,0,0,0,4.169-10.062Z" transform="translate(-559.494 -106.458)" fill="#62c058"/>
  <path id="Path_4988" data-name="Path 4988" d="M584.615,135.93a5.894,5.894,0,0,1-5.893,5.894H559.013a1.329,1.329,0,0,1-.2-2.643h19.945a3.247,3.247,0,0,0,0-6.495H558.8a1.328,1.328,0,0,1,.118-2.651h19.8a5.892,5.892,0,0,1,5.893,5.894Z" transform="translate(-557.588 -106.458)" fill="#a1d858"/>
  <path id="Path_4989" data-name="Path 4989" d="M582.86,136.594a3.246,3.246,0,0,1-3.247,3.246H561.9a4.555,4.555,0,0,0,.026-6.469c-.01-.009-.017-.017-.026-.025h17.709a3.244,3.244,0,0,1,3.247,3.248Z" transform="translate(-558.445 -107.115)" fill="#dfe6f2"/>
  <path id="Path_4990" data-name="Path 4990" d="M582.86,136.594a3.244,3.244,0,0,1-.194,1.109,3.246,3.246,0,0,0-3.053-2.138H563.148a4.53,4.53,0,0,0-1.217-2.195c-.01-.009-.017-.017-.026-.025h17.709a3.244,3.244,0,0,1,3.247,3.248Z" transform="translate(-558.445 -107.115)" fill="#cfd5e3"/>
  <path id="Path_4991" data-name="Path 4991" d="M559.314,117.054a5.868,5.868,0,0,1,4.168-1.727h19.8a1.329,1.329,0,0,1,.119,2.652h-2.248a.235.235,0,0,0-.026.024,4.555,4.555,0,0,0,.026,6.47h2.236a1.329,1.329,0,0,1-.2,2.643H563.482a5.894,5.894,0,0,1-4.168-10.062Z" transform="translate(-557.588 -103.538)" fill="#62c058"/>
  <path id="Path_4992" data-name="Path 4992" d="M567.191,121.222a5.9,5.9,0,0,0,5.893,5.894h19.708a1.329,1.329,0,0,0,.2-2.643H573.05a3.247,3.247,0,1,1,0-6.494h19.958a1.329,1.329,0,0,0-.119-2.652h-19.8a5.894,5.894,0,0,0-5.893,5.9Z" transform="translate(-559.494 -103.538)" fill="#a1d858"/>
  <path id="Path_4993" data-name="Path 4993" d="M570.45,121.885a3.246,3.246,0,0,0,3.247,3.246h17.708a4.556,4.556,0,0,1-.025-6.47c.01-.01.015-.017.025-.025H573.7a3.247,3.247,0,0,0-3.247,3.248Z" transform="translate(-560.141 -104.195)" fill="#dfe6f2"/>
  <path id="Path_4994" data-name="Path 4994" d="M570.45,121.885a3.248,3.248,0,0,0,.193,1.109,3.252,3.252,0,0,1,3.054-2.138h16.465a4.526,4.526,0,0,1,1.218-2.2c.01-.01.015-.017.025-.025H573.7a3.247,3.247,0,0,0-3.247,3.248Z" transform="translate(-560.141 -104.195)" fill="#cfd5e3"/>
</svg>
